<!DOCTYPE svg PUBLIC "-//W3C//DTD SVG 1.1//EN" "http://www.w3.org/Graphics/SVG/1.1/DTD/svg11.dtd">

<!-- Uploaded to: SVG Repo, www.svgrepo.com, Transformed by: SVG Repo Mixer Tools -->
<svg width="800px" height="800px" viewBox="0 0 24 24" xmlns="http://www.w3.org/2000/svg" fill="#1e1e1e" stroke="">

<g id="SVGRepo_bgCarrier" stroke-width="0"/>

<g id="SVGRepo_tracerCarrier" stroke-linecap="round" stroke-linejoin="round"/>

<g id="SVGRepo_iconCarrier"> <rect x="0" fill="none" width="24" height="24"/> <g> <path d="M18 14v6c0 1.105-.895 2-2 2H6c-1.105 0-2-.895-2-2v-6c0-1.105.895-2 2-2h10c1.105 0 2 .895 2 2zM13.914 2.914L11.828 5H14c4.418 0 8 3.582 8 8h-2c0-3.308-2.692-6-6-6h-2.172l2.086 2.086L12.5 10.5 8 6l1.414-1.414L12.5 1.5l1.414 1.414z"/> </g> </g>

</svg>